<?xml version="1.0" encoding="UTF-8"?>
<svg width="120mm" height="120mm" version="1.1" viewBox="0 0 120 120" xmlns="http://www.w3.org/2000/svg">
 <defs>
  <filter id="editing-jagged-3-7" x="0" y="0" width="1" height="1">
   <feTurbulence baseFrequency="0.1" result="turb" seed="1"/>
   <feDisplacementMap in="SourceGraphic" in2="turb"/>
  </filter>
 </defs>
 <path d="m58.853 100.76c-0.45574-0.14626-1.7815-0.97493-2.9462-1.8415-3.0602-2.2769-3.7461-2.5789-5.8003-2.5538-0.96886 0.0118-2.3639 0.18394-3.3585 0.41431-2.1766 0.50414-3.9829 0.51959-4.7682 0.0408-0.7945-0.48446-1.3026-1.209-2.7223-3.8818-2.0023-3.7697-2.9521-4.484-7.4725-5.6194-2.2619-0.56815-3.55-1.2115-4.0521-2.0241-0.44613-0.72185-0.72608-2.5806-0.73464-4.8778-0.01232-3.3024-0.6262-4.7414-2.8815-6.754-3.8939-3.4749-4.1165-3.7626-4.1165-5.3196 0-0.65293 0.25556-1.4743 0.99806-3.2078 1.9199-4.4822 2.0041-5.6392 0.64013-8.7927-1.5726-3.6356-1.6294-3.8044-1.6338-4.8537-0.0054-1.2671 0.45181-1.9716 2.3156-3.568 4.1233-3.5318 4.6755-4.5386 4.6786-8.5297 0.0017-2.2531 0.28085-3.9974 0.76496-4.7807 0.49225-0.79647 1.688-1.3858 4.0015-1.9723 4.5321-1.1488 5.6195-1.9239 7.2403-5.1608 1.218-2.4324 1.9912-3.5919 2.773-4.1583 0.64781-0.46927 0.90141-0.53722 2.0049-0.53722 0.6948 0 2.0289 0.17771 2.9646 0.39492 1.0184 0.2364 2.3684 0.40102 3.3632 0.41012 2.0119 0.01841 2.7641-0.29518 5.4296-2.2635 4.1429-3.0592 4.7018-3.0583 8.8658 0.01553 2.6932 1.9881 3.3334 2.2538 5.4025 2.2421 1.0109-0.0057 2.3208-0.16336 3.3585-0.40426 0.93572-0.21721 2.2615-0.39461 2.9462-0.39423 2.0674 0.0011 2.6435 0.5461 4.6325 4.3822 1.8169 3.5041 2.8398 4.2797 7.1081 5.3891 3.2708 0.85016 4.266 1.4829 4.7236 3.0028 0.0952 0.31629 0.24395 1.9423 0.33054 3.6133 0.12634 2.4384 0.23954 3.2559 0.5734 4.1406 0.43375 1.1494 0.78745 1.5425 4.6416 5.1583 2.3519 2.2065 2.4056 2.7621 0.6504 6.721-1.913 4.3148-1.9078 5.2445 0.0547 9.6832 1.0388 2.3496 1.3114 3.5048 1.0502 4.4508-0.1897 0.68704-1.4915 2.0769-4.0002 4.271-1.4185 1.2406-2.2794 2.398-2.6042 3.5008-0.10538 0.35797-0.26703 2.096-0.35922 3.8624-0.14632 2.804-0.22215 3.3181-0.59745 4.051-0.55634 1.0864-1.6136 1.6704-4.1825 2.3102-4.326 1.0774-5.5081 1.8972-7.0766 4.9077-1.4885 2.8567-2.1434 3.845-2.9215 4.4087-0.64257 0.46548-0.90392 0.53684-1.9569 0.53434-0.66841-1e-3 -1.9664-0.16145-2.8843-0.35526-4.5832-0.96761-5.4509-0.75139-9.7158 2.421-2.237 1.664-3.2618 1.9944-4.7271 1.5241zm4.6955-8.0146c12.931-1.4783 23.689-10.182 27.706-22.414 2.2544-6.8653 2.2126-14.382-0.11732-21.109-3.3737-9.7403-11.151-17.387-20.96-20.609-7.5516-2.4803-16.083-2.0839-23.293 1.0823-10.867 4.7717-18.232 14.648-19.693 26.41-0.10663 0.85818-0.19387 2.6004-0.19387 3.8717 0 3.8337 0.47495 6.7782 1.6781 10.404 4.0271 12.135 14.768 20.874 27.478 22.355 1.9148 0.22318 5.4838 0.22752 7.3952 9e-3zm-8.2861-2.1103c-11.534-1.8406-20.818-9.6178-24.643-20.645-1.2479-3.5968-1.505-5.3319-1.4971-10.105 0.0078-4.7308 0.19983-6.0129 1.4689-9.8055 3.0857-9.2214 10.274-16.39 19.55-19.496 3.734-1.2502 5.0158-1.4407 9.7249-1.4452 3.377-0.0032 4.5421 0.0622 5.7501 0.32294 6.6314 1.4314 11.76 4.1439 16.234 8.5861 4.2244 4.1943 7.0104 9.2999 8.4072 15.407 0.71845 3.1413 0.85005 8.1845 0.29753 11.402-1.1599 6.7543-3.9633 12.252-8.6848 17.031-4.5727 4.6286-10.513 7.6479-17.217 8.7502-2.0294 0.33374-7.2905 0.3319-9.391-3e-3z" fill="#808080" stroke-width=".18414"/>
 <g transform="matrix(.45107 -.55217 .55217 .45107 -105.7 154.8)" fill="#999" filter="url(#editing-jagged-3-7)">
  <g transform="translate(165.33,109.94)" fill="#999" stroke="#4d4d4d">
   <path d="m12.503-35.582q2.18 0 3.17 0.76 0.99 0.77 0.99 2.37 0 1.73-0.67 3.07-0.67 1.35-1.44 2.31t-1.03 1.34q0.77 1.28 2.88 3.01 1.73 1.47 2.76 2.62 1.02 1.16 1.76 3.11 0.73 1.95 0.73 4.77 0 3.32-1.5 6.08-1.51 2.75-4.16 4.35-2.66 1.6-5.99 1.6-2.04 0-4.48-0.87-2.43-0.86-3.58-2.46l4.29-5.7q1.53 1.99 3.23 3.4 1.7 1.4 3.68 1.4 2.75 0 4.7-1.82 1.96-1.82 1.96-4.38 0-2.05-1.7-4.07-1.7-2.01-4.77-4.77-0.38-0.32-1.47-1.31t-1.6-1.63l-4.48 6.59-2.05-1.34 5.12-7.11q-0.89-2.49-0.89-4.92 0-2.76 1.21-4.58 1.22-1.82 3.33-1.82zm0 2.49q-0.83 0-1.06 0.45-0.22 0.45-0.22 1.34 0 1.16 0.32 1.99t0.45 1.15q0.7-0.45 1.31-1.63 0.61-1.19 0.61-2.02 0-0.57-0.35-0.93-0.36-0.35-1.06-0.35zm24.13-16.89v17.02h8.89l-1.92 4.1h-6.97v22.52q0 0.96 0.57 1.57 0.58 0.61 1.54 0.61 1.34 0 3.71-2.5l0.9 0.96q-1.22 2.44-2.91 3.62-1.7 1.18-3.2 1.47-1.51 0.29-1.51 0.03 0.07 0 0.19-0.03 0.13-0.03 0.39-0.03-5.63 0-5.63-6.46v-21.76h-4.8l1.98-4.1h2.82v-14.72zm29.82 17.02q3.14 0 5.92 1.34 2.79 1.35 4.07 4.1l-4.61 2.5q-1.03-1.48-2.82-2.66t-3.84-1.18q-3.26 0-5.69 1.69-2.44 1.7-3.72 4.58t-1.28 6.4q0 5.05 1.73 8.22t5.44 3.17q5.25 0 7.23-4.22 1.99-4.23 1.99-9.22v-2.88l5.63-2.37v16.83q0 0.84 0.45 1.6 0.45 0.77 1.34 0.77 1.86 0 3.39-2.56l0.96 1.03q-0.76 2.17-2.68 3.68-1.92 1.5-3.84 1.5-2.76 0-4.07-2.05t-1.31-5.44h-0.13q-1.6 3.39-4.32 5.67-2.72 2.27-5.73 2.27-5.44 0-8.22-3.75-2.78-3.74-2.78-10.01 0-4.99 2.24-9.38 2.24-4.38 6.11-7.01 3.87-2.62 8.54-2.62zm54.66-0.58q1.92 0 2.97 1.25 1.06 1.25 1.06 4.19v21.76q0 0.96 0.45 1.57t1.21 0.61q0.77 0 1.67-0.64 0.89-0.64 1.73-1.86l1.02 0.96q-1.34 2.88-3.2 4t-0.7 1.09q1.15-0.03-2.76-0.03-5.31 0-5.31-6.46v-17.67q0-0.64-0.32-1.09-0.32-0.44-0.83-0.44-1.41 0-3.07 3.07-1.67 3.07-2.82 8.67t-1.15 12.83l-5.82 1.67v-24.71q0-0.64-0.32-1.09-0.32-0.44-0.77-0.44-1.28 0-2.98 3.1-1.69 3.1-2.94 8.7t-1.25 12.77l-5.5 1.67v-27.4q0-1.08-0.55-1.72-0.54-0.64-1.37-0.64-1.6 0-3.27 2.75l-1.02-1.03q1.34-2.88 3.2-4.12 1.85-1.25 2.27-1.28 0.42-0.04 1.25-0.04 3.07 0 4.16 1.32 1.09 1.31 1.09 3.48v10.69h0.19q1.6-6.97 4.32-11.23t5.41-4.26q1.98 0 2.97 1.22t0.99 4.22v10.05h0.39q1.6-6.97 4.25-11.23 2.66-4.26 5.35-4.26zm33.85 0.26q3.4 0 6.28 1.95t4.54 5.31 1.66 7.33q0 5.63-1.56 9.76-1.57 4.13-4.52 6.37-2.94 2.24-6.91 2.24-0.96 0-1.89-0.29-0.92-0.29-2.33-0.99l1.66-3.65q1.6 1.03 4.61 1.03 2.69 0 4.38-3.56 1.7-3.55 1.7-9.12 0-3.2-1.28-5.85-1.28-2.66-3.52-4.16-2.24-1.51-4.99-1.51-3.33 0-5.12 3.59-1.79 3.58-1.79 10.17v32.2l-5.57 2.36v-47.16q0-1.16-0.51-1.86-0.52-0.7-1.35-0.7-0.64 0-1.41 0.64-0.76 0.64-1.92 2.04l-0.96-0.96q0.77-2.17 2.69-3.68 1.92-1.5 3.84-1.5 2.88 0 4.16 1.7 1.28 1.69 1.28 5.47h0.26q1.47-3.2 3.81-5.19 2.33-1.98 4.76-1.98z" fill="#999" stroke="none"/>
  </g>
 </g>
</svg>
